<svg width="164" height="50" viewBox="0 0 164 50" fill="none" xmlns="http://www.w3.org/2000/svg">
<path d="M18.1958 43.1918C12.5958 43.1918 8.56378 42.0718 6.09978 39.8318C3.63578 37.5598 2.40378 33.9278 2.40378 28.9358V16.4558L2.45178 11.6078L2.40378 8.72779H13.1558V26.5358C13.1558 28.0078 13.2678 29.3198 13.4918 30.4718C13.7158 31.5918 14.1958 32.4718 14.9318 33.1118C15.6678 33.7518 16.7878 34.0718 18.2918 34.0718C19.8278 34.0718 20.9638 33.7838 21.6998 33.2078C22.4358 32.6318 22.9158 31.7838 23.1398 30.6638C23.3638 29.5438 23.4758 28.1678 23.4758 26.5358V8.72779H33.9878V28.9358C33.9878 32.1998 33.4598 34.8878 32.4038 36.9998C31.3478 39.0798 29.6678 40.6318 27.3638 41.6558C25.0598 42.6798 22.0038 43.1918 18.1958 43.1918ZM39.2588 42.7118V28.2638L38.2988 22.9838L39.7868 20.0558H48.8588V22.1198L49.2908 22.4078C49.6428 22.0878 50.1228 21.7198 50.7308 21.3038C51.3708 20.8558 52.1388 20.4558 53.0348 20.1038C53.9308 19.7518 54.9388 19.5758 56.0588 19.5758C58.6828 19.5758 60.6188 20.3918 61.8668 22.0238C63.1148 23.6558 63.7388 25.9438 63.7388 28.8878V35.0318L64.6988 39.8318L63.7388 42.7118H53.1308V30.5678C53.1308 29.6078 52.9068 28.9038 52.4588 28.4558C52.0428 27.9758 51.3228 27.7358 50.2988 27.7358L49.8188 28.2158V42.7118H39.2588ZM73.6872 18.6638L66.5832 12.5198L73.6872 6.42379L80.7912 12.5198L73.6872 18.6638ZM68.3592 42.7118V26.8238L67.3512 22.9838L68.3112 20.0558H78.9192V42.7118H68.3592ZM91.3294 42.7118V17.8958L81.7294 18.3758V8.72779H111.729V18.3758L101.889 17.8958V35.0318L102.417 39.8318L101.889 42.7118H91.3294ZM123.008 43.1918C120.544 43.1918 118.304 42.8398 116.288 42.1358C114.304 41.3998 112.72 40.1838 111.536 38.4878C110.384 36.7598 109.808 34.3918 109.808 31.3838C109.808 29.2718 110.16 27.4638 110.864 25.9598C111.6 24.4558 112.576 23.2398 113.792 22.3118C115.008 21.3518 116.368 20.6638 117.872 20.2478C119.376 19.7998 120.928 19.5758 122.528 19.5758C124.544 19.5758 126.224 19.7038 127.568 19.9598C128.944 20.2158 130.048 20.5038 130.88 20.8238C131.712 21.1438 132.352 21.4318 132.8 21.6878L135.2 29.3198L134.24 32.2958H120.32C120.448 33.1918 120.912 33.9598 121.712 34.5998C122.512 35.2078 123.904 35.5118 125.888 35.5118C127.776 35.5118 129.344 35.3038 130.592 34.8878C131.84 34.4718 132.736 34.1518 133.28 33.9278V41.3198C132.64 41.6718 131.76 41.9918 130.64 42.2798C129.52 42.5678 128.288 42.7918 126.944 42.9518C125.632 43.1118 124.32 43.1918 123.008 43.1918ZM120.176 29.1758L125.072 28.2638L124.64 26.7278C124.192 26.4718 123.648 26.3438 123.008 26.3438C121.952 26.3438 121.2 26.6318 120.752 27.2078C120.336 27.7838 120.144 28.4398 120.176 29.1758ZM149.574 43.1918C147.206 43.1918 145.046 42.8238 143.094 42.0878C141.174 41.3518 139.654 40.1198 138.534 38.3918C137.414 36.6638 136.854 34.3278 136.854 31.3838C136.854 29.1118 137.238 27.2238 138.006 25.7198C138.774 24.2158 139.782 23.0158 141.03 22.1198C142.278 21.1918 143.638 20.5358 145.11 20.1518C146.614 19.7678 148.102 19.5758 149.574 19.5758C151.334 19.5758 152.822 19.6558 154.038 19.8158C155.254 19.9438 156.118 20.0398 156.63 20.1038L160.374 24.3278L156.054 30.5198L150.534 27.7358C149.83 27.7358 149.206 27.9918 148.662 28.5038C148.118 29.0158 147.846 29.9758 147.846 31.3838C147.846 32.8558 148.166 33.8318 148.806 34.3118C149.478 34.7918 150.374 35.0318 151.494 35.0318C153.478 35.0318 155.19 34.7758 156.63 34.2638C158.07 33.7198 159.142 33.2878 159.846 32.9678V41.3198C158.63 41.9278 157.094 42.3918 155.238 42.7118C153.414 43.0318 151.526 43.1918 149.574 43.1918Z" fill="#346285"/>
</svg>
